<svg xmlns="http://www.w3.org/2000/svg" xmlns:xlink="http://www.w3.org/1999/xlink" width="500" zoomAndPan="magnify" viewBox="0 0 375 374.999991" height="500" preserveAspectRatio="xMidYMid meet" version="1.0"><defs><clipPath id="04c79d28e8"><path d="M 74 56 L 301.203125 56 L 301.203125 319.660156 L 74 319.660156 Z M 74 56 " clip-rule="nonzero"/></clipPath></defs><g clip-path="url(#04c79d28e8)"><path fill="#000000" d="M 253.214844 278.574219 C 279.621094 278.574219 301.105469 260.863281 301.105469 239.09375 C 300.996094 238.46875 300.941406 238.109375 300.929688 237.746094 L 300.925781 64.496094 C 300.925781 61.832031 299.640625 59.300781 297.492188 57.71875 C 295.367188 56.148438 292.550781 55.6875 289.996094 56.472656 L 158.886719 97.546875 C 155.363281 98.652344 152.992188 101.878906 152.992188 105.574219 L 152.992188 249.886719 L 148.546875 247.417969 C 140.617188 243.015625 131.414062 240.691406 121.925781 240.691406 C 95.519531 240.691406 74.039062 258.402344 74.039062 280.171875 C 74.039062 301.945312 95.519531 319.660156 121.925781 319.660156 C 148.328125 319.660156 169.804688 301.945312 169.804688 280.171875 L 169.804688 126.023438 L 284.113281 90.203125 L 284.113281 208.707031 L 279.675781 206.261719 C 271.765625 201.90625 262.613281 199.605469 253.214844 199.605469 C 226.8125 199.605469 205.332031 217.320312 205.332031 239.09375 C 205.332031 260.863281 226.8125 278.574219 253.214844 278.574219 Z M 253.214844 278.574219 " fill-opacity="1" fill-rule="nonzero"/></g></svg>