<svg xmlns="http://www.w3.org/2000/svg" xmlns:xlink="http://www.w3.org/1999/xlink" width="500" zoomAndPan="magnify" viewBox="0 0 375 374.999991" height="500" preserveAspectRatio="xMidYMid meet" version="1.0"><defs><clipPath id="74fdab4aa6"><path d="M 77.289062 90 L 297 90 L 297 210 L 77.289062 210 Z M 77.289062 90 " clip-rule="nonzero"/></clipPath></defs><path fill="#000000" d="M 101.878906 285.476562 L 132.667969 285.476562 L 132.667969 184.234375 L 101.878906 208.140625 Z M 101.878906 285.476562 " fill-opacity="1" fill-rule="nonzero"/><path fill="#000000" d="M 157.246094 165.140625 L 146.960938 173.132812 L 146.960938 285.480469 L 177.75 285.480469 L 177.75 191.542969 C 177.070312 190.925781 176.429688 190.257812 175.863281 189.511719 Z M 157.246094 165.140625 " fill-opacity="1" fill-rule="nonzero"/><path fill="#000000" d="M 192.035156 195.003906 L 192.035156 285.480469 L 222.824219 285.480469 L 222.824219 171.5625 L 197.871094 192.0625 C 196.160156 193.480469 194.148438 194.441406 192.035156 195.003906 Z M 192.035156 195.003906 " fill-opacity="1" fill-rule="nonzero"/><path fill="#000000" d="M 237.113281 285.476562 L 267.902344 285.476562 L 267.902344 134.535156 L 237.113281 159.824219 Z M 237.113281 285.476562 " fill-opacity="1" fill-rule="nonzero"/><g clip-path="url(#74fdab4aa6)"><path fill="#000000" d="M 290.582031 90.375 L 285.765625 91.109375 C 280.988281 91.832031 273.160156 93.011719 268.371094 93.734375 L 263.566406 94.46875 C 258.789062 95.1875 257.332031 98.875 260.351562 102.648438 L 263.386719 106.445312 C 263.871094 107.050781 264.433594 107.753906 265 108.464844 L 189.191406 170.757812 L 165.300781 139.472656 C 164.230469 138.078125 162.652344 137.167969 160.90625 136.941406 C 159.152344 136.714844 157.402344 137.199219 156.007812 138.269531 L 77.289062 199.027344 L 85.382812 209.453125 L 158.851562 152.773438 L 182.851562 184.1875 C 183.9375 185.605469 185.554688 186.53125 187.332031 186.730469 C 189.117188 186.945312 190.894531 186.414062 192.28125 185.277344 L 273.230469 118.773438 C 273.632812 119.269531 274.019531 119.753906 274.367188 120.191406 L 277.398438 123.988281 C 280.40625 127.761719 284.324219 127.179688 286.089844 122.667969 L 287.863281 118.152344 C 289.632812 113.644531 292.519531 106.269531 294.285156 101.777344 L 296.066406 97.246094 C 297.832031 92.753906 295.359375 89.65625 290.582031 90.375 Z M 290.582031 90.375 " fill-opacity="1" fill-rule="nonzero"/></g></svg>