<svg xmlns="http://www.w3.org/2000/svg" xmlns:xlink="http://www.w3.org/1999/xlink" width="500" zoomAndPan="magnify" viewBox="0 0 375 374.999991" height="500" preserveAspectRatio="xMidYMid meet" version="1.0"><defs><clipPath id="8ad044e564"><path d="M 87.019531 99 L 288 99 L 288 275.417969 L 87.019531 275.417969 Z M 87.019531 99 " clip-rule="nonzero"/></clipPath><clipPath id="cfca01ec5b"><path d="M 94.988281 127.65625 C 78.695312 154.5 90.171875 180.628906 104.597656 194.496094 L 188.945312 275.417969 L 271.511719 194.785156 C 284.929688 179.867188 290.070312 164.042969 287.214844 146.425781 C 283.269531 122.050781 263.183594 103.140625 238.371094 100.441406 C 223.15625 98.800781 208.453125 103.109375 196.980469 112.644531 C 193.894531 115.207031 191.132812 118.074219 188.726562 121.191406 C 185.875 117.644531 182.527344 114.398438 178.742188 111.519531 C 165.546875 101.492188 148.753906 97.511719 132.621094 100.609375 C 117.34375 103.558594 103.628906 113.414062 94.988281 127.65625 Z M 94.988281 127.65625 " clip-rule="nonzero"/></clipPath><clipPath id="2b8f8d2498"><path d="M 0.0195312 0.359375 L 201 0.359375 L 201 176.417969 L 0.0195312 176.417969 Z M 0.0195312 0.359375 " clip-rule="nonzero"/></clipPath><clipPath id="7da14c7cc6"><path d="M 7.988281 28.65625 C -8.304688 55.5 3.171875 81.628906 17.597656 95.496094 L 101.945312 176.417969 L 184.511719 95.785156 C 197.929688 80.867188 203.070312 65.042969 200.214844 47.425781 C 196.269531 23.050781 176.183594 4.140625 151.371094 1.441406 C 136.15625 -0.199219 121.453125 4.109375 109.980469 13.644531 C 106.894531 16.207031 104.132812 19.074219 101.726562 22.191406 C 98.875 18.644531 95.527344 15.398438 91.742188 12.519531 C 78.546875 2.492188 61.753906 -1.488281 45.621094 1.609375 C 30.34375 4.558594 16.628906 14.414062 7.988281 28.65625 Z M 7.988281 28.65625 " clip-rule="nonzero"/></clipPath><clipPath id="21997be8a4"><rect x="0" width="201" y="0" height="177"/></clipPath></defs><g clip-path="url(#8ad044e564)"><g clip-path="url(#cfca01ec5b)"><g transform="matrix(1, 0, 0, 1, 87, 99)"><g clip-path="url(#21997be8a4)"><g clip-path="url(#2b8f8d2498)"><g clip-path="url(#7da14c7cc6)"><path fill="#000000" d="M 0.0195312 0.582031 L 201.273438 0.582031 L 201.273438 176.417969 L 0.0195312 176.417969 Z M 0.0195312 0.582031 " fill-opacity="1" fill-rule="nonzero"/></g></g></g></g></g></g></svg>