<svg xmlns="http://www.w3.org/2000/svg" xmlns:xlink="http://www.w3.org/1999/xlink" width="500" zoomAndPan="magnify" viewBox="0 0 375 374.999991" height="500" preserveAspectRatio="xMidYMid meet" version="1.0"><defs><clipPath id="951be4dff0"><path d="M 73.03125 81.472656 L 301.78125 81.472656 L 301.78125 293.722656 L 73.03125 293.722656 Z M 73.03125 81.472656 " clip-rule="nonzero"/></clipPath></defs><g clip-path="url(#951be4dff0)"><path fill="#000000" d="M 129.460938 206.695312 C 97.871094 203.957031 73.050781 177.042969 73.050781 144.21875 C 73.050781 109.570312 100.699219 81.507812 134.777344 81.507812 C 157.050781 81.507812 176.574219 93.5 187.429688 111.480469 C 198.285156 93.496094 217.808594 81.507812 240.085938 81.507812 C 274.160156 81.507812 301.804688 109.570312 301.804688 144.21875 C 301.804688 177.042969 276.988281 203.960938 245.398438 206.695312 C 248.269531 213.980469 249.851562 221.9375 249.851562 230.265625 C 249.851562 265.308594 221.890625 293.6875 187.429688 293.6875 C 152.96875 293.6875 125.007812 265.308594 125.007812 230.265625 C 125.007812 221.9375 126.585938 213.980469 129.460938 206.695312 Z M 191.082031 118.492188 C 194.5625 126.34375 196.5 135.050781 196.5 144.21875 C 196.5 153.386719 194.5625 162.09375 191.082031 169.941406 C 200.246094 187.976562 218.746094 200.316406 240.085938 200.316406 C 240.195312 200.316406 240.308594 200.3125 240.421875 200.3125 C 270.722656 200.128906 295.207031 175.070312 295.207031 144.21875 C 295.207031 113.25 270.542969 88.121094 240.085938 88.121094 C 218.746094 88.121094 200.246094 100.460938 191.082031 118.492188 Z M 187.429688 176.957031 C 176.863281 194.460938 158.070312 206.289062 136.53125 206.898438 C 133.367188 214.027344 131.605469 221.9375 131.605469 230.265625 C 131.605469 261.628906 156.585938 287.078125 187.429688 287.078125 C 218.273438 287.078125 243.253906 261.628906 243.253906 230.265625 C 243.253906 221.9375 241.492188 214.027344 238.328125 206.898438 C 216.785156 206.289062 198 194.464844 187.429688 176.957031 Z M 203.789062 219.429688 C 201.964844 219.429688 200.488281 217.945312 200.488281 216.125 C 200.488281 214.296875 201.964844 212.816406 203.789062 212.816406 L 224.261719 212.816406 C 226.082031 212.816406 227.5625 214.296875 227.5625 216.125 C 227.5625 217.945312 226.082031 219.429688 224.261719 219.429688 Z M 170.003906 256.976562 C 168.183594 256.976562 166.707031 255.496094 166.707031 253.671875 C 166.707031 251.847656 168.183594 250.367188 170.003906 250.367188 L 204.941406 250.367188 C 206.765625 250.367188 208.242188 251.847656 208.242188 253.671875 C 208.242188 255.496094 206.765625 256.976562 204.941406 256.976562 Z M 150.597656 219.429688 C 148.777344 219.429688 147.296875 217.945312 147.296875 216.125 C 147.296875 214.296875 148.777344 212.816406 150.597656 212.816406 L 171.070312 212.816406 C 172.890625 212.816406 174.371094 214.296875 174.371094 216.125 C 174.371094 217.945312 172.890625 219.429688 171.070312 219.429688 Z M 220.859375 132.324219 C 220.859375 130.5 222.339844 129.019531 224.160156 129.019531 C 225.980469 129.019531 227.457031 130.5 227.457031 132.324219 C 227.457031 139.910156 221.386719 146.035156 213.921875 146.035156 C 206.460938 146.035156 200.386719 139.910156 200.386719 132.324219 C 200.386719 130.5 201.867188 129.019531 203.6875 129.019531 C 205.507812 129.019531 206.988281 130.5 206.988281 132.324219 C 206.988281 136.234375 210.078125 139.425781 213.921875 139.425781 C 217.769531 139.425781 220.859375 136.234375 220.859375 132.324219 Z M 224.332031 177.8125 C 223.453125 179.410156 221.445312 179.992188 219.851562 179.113281 C 218.253906 178.230469 217.675781 176.21875 218.554688 174.621094 C 222.769531 166.960938 230.835938 161.792969 240.082031 161.792969 C 249.332031 161.792969 257.398438 166.960938 261.613281 174.621094 C 262.492188 176.21875 261.914062 178.230469 260.316406 179.113281 C 258.722656 179.992188 256.714844 179.410156 255.835938 177.8125 C 252.75 172.203125 246.855469 168.402344 240.082031 168.402344 C 233.3125 168.402344 227.417969 172.203125 224.332031 177.8125 Z M 273.179688 132.324219 C 273.179688 130.5 274.660156 129.019531 276.480469 129.019531 C 278.300781 129.019531 279.78125 130.5 279.78125 132.324219 C 279.78125 139.910156 273.707031 146.035156 266.246094 146.035156 C 258.78125 146.035156 252.710938 139.910156 252.710938 132.324219 C 252.710938 130.5 254.1875 129.019531 256.007812 129.019531 C 257.828125 129.019531 259.308594 130.5 259.308594 132.324219 C 259.308594 136.234375 262.398438 139.425781 266.246094 139.425781 C 270.089844 139.425781 273.179688 136.234375 273.179688 132.324219 Z M 134.777344 88.121094 C 104.316406 88.121094 79.652344 113.25 79.652344 144.21875 C 79.652344 175.1875 104.316406 200.316406 134.777344 200.316406 C 165.234375 200.316406 189.898438 175.1875 189.898438 144.21875 C 189.898438 113.25 165.234375 88.121094 134.777344 88.121094 Z M 122.148438 142.730469 C 122.148438 144.554688 120.671875 146.035156 118.851562 146.035156 C 117.027344 146.035156 115.550781 144.554688 115.550781 142.730469 C 115.550781 138.820312 112.460938 135.628906 108.613281 135.628906 C 104.769531 135.628906 101.679688 138.820312 101.679688 142.730469 C 101.679688 144.554688 100.199219 146.035156 98.378906 146.035156 C 96.558594 146.035156 95.078125 144.554688 95.078125 142.730469 C 95.078125 135.144531 101.152344 129.019531 108.613281 129.019531 C 116.078125 129.019531 122.148438 135.144531 122.148438 142.730469 Z M 113.246094 166.691406 C 112.367188 165.09375 112.945312 163.082031 114.542969 162.203125 C 116.136719 161.320312 118.144531 161.902344 119.023438 163.5 C 122.109375 169.109375 128.003906 172.914062 134.773438 172.914062 C 141.546875 172.914062 147.441406 169.109375 150.527344 163.5 C 151.40625 161.902344 153.414062 161.320312 155.007812 162.203125 C 156.605469 163.082031 157.183594 165.09375 156.304688 166.691406 C 152.089844 174.355469 144.023438 179.523438 134.773438 179.523438 C 125.527344 179.523438 117.460938 174.355469 113.246094 166.691406 Z M 174.472656 142.730469 C 174.472656 144.554688 172.992188 146.035156 171.171875 146.035156 C 169.351562 146.035156 167.871094 144.554688 167.871094 142.730469 C 167.871094 138.820312 164.78125 135.628906 160.9375 135.628906 C 157.089844 135.628906 154 138.820312 154 142.730469 C 154 144.554688 152.519531 146.035156 150.699219 146.035156 C 148.878906 146.035156 147.402344 144.554688 147.402344 142.730469 C 147.402344 135.144531 153.472656 129.019531 160.9375 129.019531 C 168.398438 129.019531 174.472656 135.144531 174.472656 142.730469 Z M 174.472656 142.730469 " fill-opacity="1" fill-rule="evenodd"/></g></svg>